<svg height='300px' width='300px'  fill="#FF8400" xmlns="http://www.w3.org/2000/svg" xmlns:xlink="http://www.w3.org/1999/xlink" version="1.1" x="0px" y="0px" viewBox="0 0 100 100" enable-background="new 0 0 100 100" xml:space="preserve"><path fill-rule="evenodd" clip-rule="evenodd" d="M61.283,9.535c-0.233,0.366-0.717,0.366-1.45,0c-6.2-3.334-12.65-3.95-19.35-1.851  c-4.033,1.267-6.783,2.284-8.25,3.05c-4.066,2.334-7.033,5.45-8.9,9.351c-1.1,2.333-1.767,5-2,8c-0.2,1.966-0.183,4.683,0.05,8.149  c0,0.601,0.133,1.033,0.4,1.301c1,1.033,1.95,2.482,2.85,4.35c0.967,2.1,1.733,3.65,2.3,4.65c2.767,4.866,4.167,7.333,4.2,7.399  c1.733,2.733,3.483,4.983,5.25,6.75c2.4,2.366,4.583,4.2,6.55,5.5c2.566,1.733,5.2,2.884,7.9,3.45c4.333,0.9,8.967,0.733,13.9-0.5  c0.867-0.233,1.6-0.867,2.2-1.9c4.4-7.8,8-16,10.8-24.6c2.6-7.834,1.867-15.367-2.2-22.6c-2.233-3.834-5.4-6.65-9.5-8.45  c-0.667-0.3-1.117-0.534-1.35-0.7c-0.5-0.334-0.883-0.85-1.15-1.55c6.867,1.966,11.75,6.25,14.65,12.85  c1.1,2.4,1.867,5.866,2.3,10.4c0.1,1.566-0.017,3.3-0.35,5.2c-0.167,1.1-0.55,2.783-1.15,5.05c-1.5,5.466-3.917,11.417-7.25,17.85  c-1.267,2.366-3.05,5.967-5.35,10.8c-2.133,4.2-4.25,7.634-6.35,10.301c-2.5,3.1-5.067,6.767-7.7,11  c-0.933,1.466-1.983,2.199-3.15,2.199c-1.333,0.034-2.5-0.816-3.5-2.55c-1.233-2.033-3.033-5.134-5.4-9.3  c-1.133-1.834-2.25-3.5-3.35-5c-0.867-1.233-1.733-2.7-2.6-4.4c-0.267-0.5-0.983-2.033-2.15-4.6c-1.8-3.834-3.15-6.717-4.05-8.65  c-1.466-3.333-2.667-6.266-3.6-8.8c-1.833-4.899-3.167-8.966-4-12.2c-1.434-5.366-1.4-10.833,0.1-16.399  c2.067-7.5,6.75-12.467,14.05-14.9c4.8-1.566,8.133-2.517,10-2.85c3.267-0.567,6.45-0.384,9.55,0.55  c1.434,0.434,2.517,0.75,3.25,0.95c1.267,0.399,2.3,0.884,3.1,1.45C61.316,8.719,61.55,9.135,61.283,9.535z M51.483,17.734  c-4.733,0.467-8.283,1.217-10.65,2.25c-2.733,1.2-4.767,2.9-6.1,5.101c-1.3,2.167-1.967,4.95-2,8.35  c0.533,3.333,1.033,5.616,1.5,6.851c1,2.566,2.65,4.5,4.95,5.8c0.333,0.2,0.583,0.466,0.75,0.8c0.3,0.467,0.733,0.85,1.3,1.15  c0.133,0.066,0.667,0.3,1.6,0.699c2,0.801,4.35,0.917,7.05,0.351c6.833-1.534,11.517-5.233,14.05-11.101  c0.933-2.166,1.283-4.449,1.05-6.85c-0.2-1.9-0.8-4.133-1.8-6.7c-0.467-1.267-1.417-2.333-2.85-3.2l-4.1-2.3  C54.466,18.002,52.883,17.602,51.483,17.734z M60.033,19.185c2.9,1.634,4.683,3.95,5.35,6.95c0.1,0.7,0.317,1.733,0.65,3.1  c0.3,1.234,0.466,2.268,0.5,3.101c0.133,3.366-0.784,6.55-2.75,9.55c-4.1,6-10.1,9.184-18,9.55c-2.534,0.3-5.383-1.1-8.55-4.2  c-5.7-5.5-7.367-12.232-5-20.199c1.233-4,4.567-7,10-9c1.167-0.434,2.617-0.801,4.35-1.101c2-0.3,3.5-0.55,4.5-0.75  c1.1-0.233,2.683,0.05,4.75,0.851C56.533,17.301,57.933,18.018,60.033,19.185z M56.133,71.234c-0.7,0.033-1.167,0.018-1.4-0.05  c-1.833-0.366-3.1,0.333-3.8,2.101c-0.167,0.533-0.9,1.666-2.2,3.399l-2.2,3.05c0.233-1.1,0.983-2.55,2.25-4.35  c1.2-1.834,1.95-3.3,2.25-4.4c-3.067-1.266-5.083-2.066-6.05-2.399c-0.267-0.067-0.9-0.467-1.9-1.2c-0.733-0.533-1.367-0.7-1.9-0.5  c-0.567,0.233-1.083,0.75-1.55,1.55c-0.267,0.467-0.65,1.167-1.15,2.101c-0.2,0.399-0.333,0.633-0.4,0.699  c-1.667,1.9-1.583,4.033,0.25,6.4c1.9,2.5,3.717,5.35,5.45,8.55c0.267,0.5,1.45,2.367,3.55,5.601  c0.833,1.333,1.783,1.649,2.85,0.949c1.233-0.533,2.2-1.85,2.9-3.949c-0.533,0.066-1.017,0.449-1.45,1.149  c-0.466,0.767-0.867,1.217-1.2,1.351c0.333-1.267,0.983-2.617,1.95-4.051c1.1-1.699,1.95-2.967,2.55-3.8  c2.167-3.634,3.883-6.316,5.15-8.05c0.167-0.233,0.317-0.4,0.45-0.5c0.2-0.2,0.533-0.316,1-0.35l-4.55,7.149  c-0.4,0.667-1.017,1.601-1.85,2.8c-0.733,1.066-1.183,2.033-1.35,2.9c3.1-3.434,6.066-7.35,8.9-11.75c1.367-2.2,2.217-4,2.55-5.4  c-0.533-0.166-1.133-0.166-1.8,0c-1,0.167-1.55,0.25-1.65,0.25c-1.6,0.167-2.867,1.051-3.8,2.65c-1.633,2.767-4.133,6.834-7.5,12.2  c-0.867,1.5-1.633,2.483-2.3,2.95c0.667-1.234,2.283-4,4.85-8.301c2.066-3.434,3.617-6.266,4.65-8.5  C57.25,71.318,56.733,71.234,56.133,71.234z M23.733,43.385c0.367,1.267,0.917,3.184,1.65,5.75c0.667,2.267,1.417,4.184,2.25,5.75  c0.333-1.066,0.534-1.65,0.6-1.75c0.267-0.4,0.417-0.666,0.45-0.8c0.066-0.3-0.017-0.601-0.25-0.9c-0.7-0.966-1.5-2.3-2.4-4  C24.866,45.301,24.1,43.951,23.733,43.385z M32.383,58.085c-0.133-0.601-1.15-1.9-3.05-3.9c-0.7,1.233-0.933,2.434-0.7,3.601  c0.2,1.166,0.967,2.516,2.3,4.05C32.066,60.002,32.55,58.752,32.383,58.085z M34.483,60.285c-0.367-0.301-0.75-0.45-1.15-0.45  l-1,1.6c-0.633,1.067-0.783,2.217-0.45,3.45c0.333,1.2,1.05,2.184,2.15,2.95v-0.05l0.05,0.05h-0.05c-0.1,0.933,0.066,1.884,0.5,2.85  c0.267,0.667,0.783,1.55,1.55,2.65c0.5-0.7,1.117-1.8,1.85-3.3c0.667-1.4,1.267-2.417,1.8-3.051c0.767-0.866,0.667-1.616-0.3-2.25  c-0.667-0.366-1.4-0.934-2.2-1.699l-1.95-1.9C35.083,60.969,34.816,60.685,34.483,60.285z M36.183,64.085  c0.133,0.167,0.133,0.333,0,0.5c-0.233,0.366-0.517,0.966-0.85,1.8c-0.333,0.633-0.75,1.1-1.25,1.4c0.067-0.4,0.233-0.967,0.5-1.7  c0.3-0.767,0.467-1.366,0.5-1.8c0.1-0.533,0.333-0.717,0.7-0.551C35.983,63.801,36.116,63.918,36.183,64.085z M42.733,74.085  c-0.433,0.7-1.066,1.75-1.9,3.149c0.367-1.833,1.483-4.016,3.35-6.55C43.95,71.685,43.466,72.818,42.733,74.085z"></path></svg>